<svg width="192" height="36.5" version="1.1" id="svg95" sodipodi:docname="textbox-wip.svg" inkscape:version="1.4.1 (93de688d07, 2025-03-30)" xmlns:inkscape="http://www.inkscape.org/namespaces/inkscape" xmlns:sodipodi="http://sodipodi.sourceforge.net/DTD/sodipodi-0.dtd" xmlns="http://www.w3.org/2000/svg" xmlns:svg="http://www.w3.org/2000/svg"><defs id="defs1"/><sodipodi:namedview id="namedview1" pagecolor="#505050" bordercolor="#ffffff" borderopacity="1" inkscape:showpageshadow="0" inkscape:pageopacity="0" inkscape:pagecheckerboard="1" inkscape:deskcolor="#505050" inkscape:zoom="3.6386536" inkscape:cx="72.004656" inkscape:cy="48.506953" inkscape:window-width="1882" inkscape:window-height="988" inkscape:window-x="0" inkscape:window-y="0" inkscape:window-maximized="1" inkscape:current-layer="svg95"/><g id="g1" transform="translate(0-71.5)"><path d="M4 72.5 187.5 72Q191.5 72 191.5 76.5V107.5H.5V76Q.5 72.5 4 72.5" stroke="#ffdfee" fill="#fea8d2" id="path1"/><circle r="2" stroke="#fe96c6" fill="#fe96c6" stroke-width="0" cx="4" cy="76" id="circle3"/><circle r="2" stroke="#fe96c6" fill="#fe96c6" stroke-width="0" cx="8" cy="80" id="circle1"/><circle r="2" stroke="#fe96c6" fill="#fe96c6" stroke-width="0" cx="12" cy="76" id="circle2"/><circle r="2" stroke="#fe96c6" fill="#fe96c6" stroke-width="0" cx="16" cy="80" id="circle4"/><circle r="2" stroke="#fe96c6" fill="#fe96c6" stroke-width="0" cx="12" cy="84" id="circle5"/><circle r="2" stroke="#fe96c6" fill="#fe96c6" stroke-width="0" cx="16" cy="88" id="circle6"/><circle r="2" stroke="#fe96c6" fill="#fe96c6" stroke-width="0" cx="4" cy="84" id="circle7"/><circle r="2" stroke="#fe96c6" fill="#fe96c6" stroke-width="0" cx="8" cy="88" id="circle8"/><circle r="2" stroke="#fe96c6" fill="#fe96c6" stroke-width="0" cx="20" cy="76" id="circle9"/><circle r="2" stroke="#fe96c6" fill="#fe96c6" stroke-width="0" cx="24" cy="80" id="circle10"/><circle r="2" stroke="#fe96c6" fill="#fe96c6" stroke-width="0" cx="28" cy="76" id="circle11"/><circle r="2" stroke="#fe96c6" fill="#fe96c6" stroke-width="0" cx="32" cy="80" id="circle12"/><circle r="2" stroke="#fe96c6" fill="#fe96c6" stroke-width="0" cx="28" cy="84" id="circle13"/><circle r="2" stroke="#fe96c6" fill="#fe96c6" stroke-width="0" cx="32" cy="88" id="circle14"/><circle r="2" stroke="#fe96c6" fill="#fe96c6" stroke-width="0" cx="20" cy="84" id="circle15"/><circle r="2" stroke="#fe96c6" fill="#fe96c6" stroke-width="0" cx="24" cy="88" id="circle16"/><circle r="2" stroke="#fe96c6" fill="#fe96c6" stroke-width="0" cx="36" cy="76" id="circle17"/><circle r="2" stroke="#fe96c6" fill="#fe96c6" stroke-width="0" cx="40" cy="80" id="circle18"/><circle r="2" stroke="#fe96c6" fill="#fe96c6" stroke-width="0" cx="44" cy="76" id="circle19"/><circle r="2" stroke="#fe96c6" fill="#fe96c6" stroke-width="0" cx="48" cy="80" id="circle20"/><circle r="2" stroke="#fe96c6" fill="#fe96c6" stroke-width="0" cx="44" cy="84" id="circle21"/><circle r="2" stroke="#fe96c6" fill="#fe96c6" stroke-width="0" cx="48" cy="88" id="circle22"/><circle r="2" stroke="#fe96c6" fill="#fe96c6" stroke-width="0" cx="36" cy="84" id="circle23"/><circle r="2" stroke="#fe96c6" fill="#fe96c6" stroke-width="0" cx="40" cy="88" id="circle24"/><circle r="2" stroke="#fe96c6" fill="#fe96c6" stroke-width="0" cx="52" cy="76" id="circle25"/><circle r="2" stroke="#fe96c6" fill="#fe96c6" stroke-width="0" cx="56" cy="80" id="circle26"/><circle r="2" stroke="#fe96c6" fill="#fe96c6" stroke-width="0" cx="60" cy="76" id="circle27"/><circle r="2" stroke="#fe96c6" fill="#fe96c6" stroke-width="0" cx="64" cy="80" id="circle28"/><circle r="2" stroke="#fe96c6" fill="#fe96c6" stroke-width="0" cx="60" cy="84" id="circle29"/><circle r="2" stroke="#fe96c6" fill="#fe96c6" stroke-width="0" cx="64" cy="88" id="circle30"/><circle r="2" stroke="#fe96c6" fill="#fe96c6" stroke-width="0" cx="52" cy="84" id="circle31"/><circle r="2" stroke="#fe96c6" fill="#fe96c6" stroke-width="0" cx="56" cy="88" id="circle32"/><circle r="2" stroke="#fe96c6" fill="#fe96c6" stroke-width="0" cx="68" cy="76" id="circle33"/><circle r="2" stroke="#fe96c6" fill="#fe96c6" stroke-width="0" cx="72" cy="80" id="circle34"/><circle r="2" stroke="#fe96c6" fill="#fe96c6" stroke-width="0" cx="76" cy="76" id="circle35"/><circle r="2" stroke="#fe96c6" fill="#fe96c6" stroke-width="0" cx="80" cy="80" id="circle36"/><circle r="2" stroke="#fe96c6" fill="#fe96c6" stroke-width="0" cx="76" cy="84" id="circle37"/><circle r="2" stroke="#fe96c6" fill="#fe96c6" stroke-width="0" cx="80" cy="88" id="circle38"/><circle r="2" stroke="#fe96c6" fill="#fe96c6" stroke-width="0" cx="68" cy="84" id="circle39"/><circle r="2" stroke="#fe96c6" fill="#fe96c6" stroke-width="0" cx="72" cy="88" id="circle40"/><circle r="2" stroke="#fe96c6" fill="#fe96c6" stroke-width="0" cx="84" cy="76" id="circle41"/><circle r="2" stroke="#fe96c6" fill="#fe96c6" stroke-width="0" cx="88" cy="80" id="circle42"/><circle r="2" stroke="#fe96c6" fill="#fe96c6" stroke-width="0" cx="92" cy="76" id="circle43"/><circle r="2" stroke="#fe96c6" fill="#fe96c6" stroke-width="0" cx="96" cy="80" id="circle44"/><circle r="2" stroke="#fe96c6" fill="#fe96c6" stroke-width="0" cx="92" cy="84" id="circle45"/><circle r="2" stroke="#fe96c6" fill="#fe96c6" stroke-width="0" cx="96" cy="88" id="circle46"/><circle r="2" stroke="#fe96c6" fill="#fe96c6" stroke-width="0" cx="84" cy="84" id="circle47"/><circle r="2" stroke="#fe96c6" fill="#fe96c6" stroke-width="0" cx="88" cy="88" id="circle48"/><circle r="2" stroke="#fe96c6" fill="#fe96c6" stroke-width="0" cx="100" cy="76" id="circle49"/><circle r="2" stroke="#fe96c6" fill="#fe96c6" stroke-width="0" cx="104" cy="80" id="circle50"/><circle r="2" stroke="#fe96c6" fill="#fe96c6" stroke-width="0" cx="108" cy="76" id="circle51"/><circle r="2" stroke="#fe96c6" fill="#fe96c6" stroke-width="0" cx="112" cy="80" id="circle52"/><circle r="2" stroke="#fe96c6" fill="#fe96c6" stroke-width="0" cx="108" cy="84" id="circle53"/><circle r="2" stroke="#fe96c6" fill="#fe96c6" stroke-width="0" cx="112" cy="88" id="circle54"/><circle r="2" stroke="#fe96c6" fill="#fe96c6" stroke-width="0" cx="100" cy="84" id="circle55"/><circle r="2" stroke="#fe96c6" fill="#fe96c6" stroke-width="0" cx="104" cy="88" id="circle56"/><circle r="2" stroke="#fe96c6" fill="#fe96c6" stroke-width="0" cx="116" cy="76" id="circle57"/><circle r="2" stroke="#fe96c6" fill="#fe96c6" stroke-width="0" cx="120" cy="80" id="circle58"/><circle r="2" stroke="#fe96c6" fill="#fe96c6" stroke-width="0" cx="124" cy="76" id="circle59"/><circle r="2" stroke="#fe96c6" fill="#fe96c6" stroke-width="0" cx="128" cy="80" id="circle60"/><circle r="2" stroke="#fe96c6" fill="#fe96c6" stroke-width="0" cx="124" cy="84" id="circle61"/><circle r="2" stroke="#fe96c6" fill="#fe96c6" stroke-width="0" cx="128" cy="88" id="circle62"/><circle r="2" stroke="#fe96c6" fill="#fe96c6" stroke-width="0" cx="116" cy="84" id="circle63"/><circle r="2" stroke="#fe96c6" fill="#fe96c6" stroke-width="0" cx="120" cy="88" id="circle64"/><circle r="2" stroke="#fe96c6" fill="#fe96c6" stroke-width="0" cx="132" cy="76" id="circle65"/><circle r="2" stroke="#fe96c6" fill="#fe96c6" stroke-width="0" cx="136" cy="80" id="circle66"/><circle r="2" stroke="#fe96c6" fill="#fe96c6" stroke-width="0" cx="140" cy="76" id="circle67"/><circle r="2" stroke="#fe96c6" fill="#fe96c6" stroke-width="0" cx="144" cy="80" id="circle68"/><circle r="2" stroke="#fe96c6" fill="#fe96c6" stroke-width="0" cx="140" cy="84" id="circle69"/><circle r="2" stroke="#fe96c6" fill="#fe96c6" stroke-width="0" cx="144" cy="88" id="circle70"/><circle r="2" stroke="#fe96c6" fill="#fe96c6" stroke-width="0" cx="132" cy="84" id="circle71"/><circle r="2" stroke="#fe96c6" fill="#fe96c6" stroke-width="0" cx="136" cy="88" id="circle72"/><circle r="2" stroke="#fe96c6" fill="#fe96c6" stroke-width="0" cx="148" cy="76" id="circle73"/><circle r="2" stroke="#fe96c6" fill="#fe96c6" stroke-width="0" cx="152" cy="80" id="circle74"/><circle r="2" stroke="#fe96c6" fill="#fe96c6" stroke-width="0" cx="156" cy="76" id="circle75"/><circle r="2" stroke="#fe96c6" fill="#fe96c6" stroke-width="0" cx="160" cy="80" id="circle76"/><circle r="2" stroke="#fe96c6" fill="#fe96c6" stroke-width="0" cx="156" cy="84" id="circle77"/><circle r="2" stroke="#fe96c6" fill="#fe96c6" stroke-width="0" cx="160" cy="88" id="circle78"/><circle r="2" stroke="#fe96c6" fill="#fe96c6" stroke-width="0" cx="148" cy="84" id="circle79"/><circle r="2" stroke="#fe96c6" fill="#fe96c6" stroke-width="0" cx="152" cy="88" id="circle80"/><circle r="2" stroke="#fe96c6" fill="#fe96c6" stroke-width="0" cx="164" cy="76" id="circle81"/><circle r="2" stroke="#fe96c6" fill="#fe96c6" stroke-width="0" cx="168" cy="80" id="circle82"/><circle r="2" stroke="#fe96c6" fill="#fe96c6" stroke-width="0" cx="172" cy="76" id="circle83"/><circle r="2" stroke="#fe96c6" fill="#fe96c6" stroke-width="0" cx="176" cy="80" id="circle84"/><circle r="2" stroke="#fe96c6" fill="#fe96c6" stroke-width="0" cx="172" cy="84" id="circle85"/><circle r="2" stroke="#fe96c6" fill="#fe96c6" stroke-width="0" cx="176" cy="88" id="circle86"/><circle r="2" stroke="#fe96c6" fill="#fe96c6" stroke-width="0" cx="164" cy="84" id="circle87"/><circle r="2" stroke="#fe96c6" fill="#fe96c6" stroke-width="0" cx="168" cy="88" id="circle88"/><circle r="2" stroke="#fe96c6" fill="#fe96c6" stroke-width="0" cx="180" cy="76" id="circle89"/><circle r="2" stroke="#fe96c6" fill="#fe96c6" stroke-width="0" cx="184" cy="80" id="circle90"/><circle r="2" stroke="#fe96c6" fill="#fe96c6" stroke-width="0" cx="188" cy="76" id="circle91"/><circle r="2" stroke="#fe96c6" fill="#fe96c6" stroke-width="0" cx="188" cy="84" id="circle93"/><circle r="2" stroke="#fe96c6" fill="#fe96c6" stroke-width="0" cx="180" cy="84" id="circle95"/><circle r="2" stroke="#fe96c6" fill="#fe96c6" stroke-width="0" cx="184" cy="88" id="circle96"/><circle r="2" stroke="#fe96c6" fill="#fe96c6" stroke-width="0" cx="4" cy="92" id="circle190"/><circle r="2" stroke="#fe96c6" fill="#fe96c6" stroke-width="0" cx="8" cy="96" id="circle191"/><circle r="2" stroke="#fe96c6" fill="#fe96c6" stroke-width="0" cx="4" cy="100" id="circle192"/><circle r="2" stroke="#fe96c6" fill="#fe96c6" stroke-width="0" cx="12" cy="92" id="circle193"/><circle r="2" stroke="#fe96c6" fill="#fe96c6" stroke-width="0" cx="12" cy="92" id="circle194"/><circle r="2" stroke="#fe96c6" fill="#fe96c6" stroke-width="0" cx="12" cy="100" id="circle199"/><circle r="2" stroke="#fe96c6" fill="#fe96c6" stroke-width="0" cx="8" cy="104" id="circle200"/><circle r="2" stroke="#fe96c6" fill="#fe96c6" stroke-width="0" cx="16" cy="96" id="circle206"/><circle r="2" stroke="#fe96c6" fill="#fe96c6" stroke-width="0" cx="16" cy="104" id="circle213"/><circle r="2" stroke="#fe96c6" fill="#fe96c6" stroke-width="0" cx="20" cy="92" id="circle214"/><circle r="2" stroke="#fe96c6" fill="#fe96c6" stroke-width="0" cx="24" cy="96" id="circle215"/><circle r="2" stroke="#fe96c6" fill="#fe96c6" stroke-width="0" cx="20" cy="100" id="circle216"/><circle r="2" stroke="#fe96c6" fill="#fe96c6" stroke-width="0" cx="28" cy="92" id="circle217"/><circle r="2" stroke="#fe96c6" fill="#fe96c6" stroke-width="0" cx="28" cy="100" id="circle218"/><circle r="2" stroke="#fe96c6" fill="#fe96c6" stroke-width="0" cx="24" cy="104" id="circle219"/><circle r="2" stroke="#fe96c6" fill="#fe96c6" stroke-width="0" cx="32" cy="96" id="circle220"/><circle r="2" stroke="#fe96c6" fill="#fe96c6" stroke-width="0" cx="32" cy="104" id="circle221"/><circle r="2" stroke="#fe96c6" fill="#fe96c6" stroke-width="0" cx="36" cy="92" id="circle222"/><circle r="2" stroke="#fe96c6" fill="#fe96c6" stroke-width="0" cx="40" cy="96" id="circle223"/><circle r="2" stroke="#fe96c6" fill="#fe96c6" stroke-width="0" cx="36" cy="100" id="circle224"/><circle r="2" stroke="#fe96c6" fill="#fe96c6" stroke-width="0" cx="44" cy="92" id="circle225"/><circle r="2" stroke="#fe96c6" fill="#fe96c6" stroke-width="0" cx="44" cy="100" id="circle226"/><circle r="2" stroke="#fe96c6" fill="#fe96c6" stroke-width="0" cx="40" cy="104" id="circle227"/><circle r="2" stroke="#fe96c6" fill="#fe96c6" stroke-width="0" cx="48" cy="96" id="circle228"/><circle r="2" stroke="#fe96c6" fill="#fe96c6" stroke-width="0" cx="48" cy="104" id="circle229"/><circle r="2" stroke="#fe96c6" fill="#fe96c6" stroke-width="0" cx="52" cy="92" id="circle230"/><circle r="2" stroke="#fe96c6" fill="#fe96c6" stroke-width="0" cx="56" cy="96" id="circle231"/><circle r="2" stroke="#fe96c6" fill="#fe96c6" stroke-width="0" cx="52" cy="100" id="circle232"/><circle r="2" stroke="#fe96c6" fill="#fe96c6" stroke-width="0" cx="60" cy="92" id="circle233"/><circle r="2" stroke="#fe96c6" fill="#fe96c6" stroke-width="0" cx="60" cy="92" id="circle234"/><circle r="2" stroke="#fe96c6" fill="#fe96c6" stroke-width="0" cx="60" cy="100" id="circle235"/><circle r="2" stroke="#fe96c6" fill="#fe96c6" stroke-width="0" cx="56" cy="104" id="circle236"/><circle r="2" stroke="#fe96c6" fill="#fe96c6" stroke-width="0" cx="64" cy="96" id="circle237"/><circle r="2" stroke="#fe96c6" fill="#fe96c6" stroke-width="0" cx="64" cy="104" id="circle238"/><circle r="2" stroke="#fe96c6" fill="#fe96c6" stroke-width="0" cx="68" cy="92" id="circle239"/><circle r="2" stroke="#fe96c6" fill="#fe96c6" stroke-width="0" cx="72" cy="96" id="circle240"/><circle r="2" stroke="#fe96c6" fill="#fe96c6" stroke-width="0" cx="68" cy="100" id="circle241"/><circle r="2" stroke="#fe96c6" fill="#fe96c6" stroke-width="0" cx="76" cy="92" id="circle242"/><circle r="2" stroke="#fe96c6" fill="#fe96c6" stroke-width="0" cx="76" cy="100" id="circle243"/><circle r="2" stroke="#fe96c6" fill="#fe96c6" stroke-width="0" cx="72" cy="104" id="circle244"/><circle r="2" stroke="#fe96c6" fill="#fe96c6" stroke-width="0" cx="80" cy="96" id="circle245"/><circle r="2" stroke="#fe96c6" fill="#fe96c6" stroke-width="0" cx="80" cy="104" id="circle246"/><circle r="2" stroke="#fe96c6" fill="#fe96c6" stroke-width="0" cx="84" cy="92" id="circle247"/><circle r="2" stroke="#fe96c6" fill="#fe96c6" stroke-width="0" cx="88" cy="96" id="circle248"/><circle r="2" stroke="#fe96c6" fill="#fe96c6" stroke-width="0" cx="84" cy="100" id="circle249"/><circle r="2" stroke="#fe96c6" fill="#fe96c6" stroke-width="0" cx="92" cy="92" id="circle250"/><circle r="2" stroke="#fe96c6" fill="#fe96c6" stroke-width="0" cx="92" cy="100" id="circle251"/><circle r="2" stroke="#fe96c6" fill="#fe96c6" stroke-width="0" cx="88" cy="104" id="circle252"/><circle r="2" stroke="#fe96c6" fill="#fe96c6" stroke-width="0" cx="96" cy="96" id="circle253"/><circle r="2" stroke="#fe96c6" fill="#fe96c6" stroke-width="0" cx="96" cy="104" id="circle254"/><circle r="2" stroke="#fe96c6" fill="#fe96c6" stroke-width="0" cx="100" cy="92" id="circle255"/><circle r="2" stroke="#fe96c6" fill="#fe96c6" stroke-width="0" cx="104" cy="96" id="circle256"/><circle r="2" stroke="#fe96c6" fill="#fe96c6" stroke-width="0" cx="100" cy="100" id="circle257"/><circle r="2" stroke="#fe96c6" fill="#fe96c6" stroke-width="0" cx="108" cy="92" id="circle258"/><circle r="2" stroke="#fe96c6" fill="#fe96c6" stroke-width="0" cx="108" cy="92" id="circle259"/><circle r="2" stroke="#fe96c6" fill="#fe96c6" stroke-width="0" cx="108" cy="100" id="circle260"/><circle r="2" stroke="#fe96c6" fill="#fe96c6" stroke-width="0" cx="104" cy="104" id="circle261"/><circle r="2" stroke="#fe96c6" fill="#fe96c6" stroke-width="0" cx="112" cy="96" id="circle262"/><circle r="2" stroke="#fe96c6" fill="#fe96c6" stroke-width="0" cx="112" cy="104" id="circle263"/><circle r="2" stroke="#fe96c6" fill="#fe96c6" stroke-width="0" cx="116" cy="92" id="circle264"/><circle r="2" stroke="#fe96c6" fill="#fe96c6" stroke-width="0" cx="120" cy="96" id="circle265"/><circle r="2" stroke="#fe96c6" fill="#fe96c6" stroke-width="0" cx="116" cy="100" id="circle266"/><circle r="2" stroke="#fe96c6" fill="#fe96c6" stroke-width="0" cx="124" cy="92" id="circle267"/><circle r="2" stroke="#fe96c6" fill="#fe96c6" stroke-width="0" cx="124" cy="100" id="circle268"/><circle r="2" stroke="#fe96c6" fill="#fe96c6" stroke-width="0" cx="120" cy="104" id="circle269"/><circle r="2" stroke="#fe96c6" fill="#fe96c6" stroke-width="0" cx="128" cy="96" id="circle270"/><circle r="2" stroke="#fe96c6" fill="#fe96c6" stroke-width="0" cx="128" cy="104" id="circle271"/><circle r="2" stroke="#fe96c6" fill="#fe96c6" stroke-width="0" cx="132" cy="92" id="circle272"/><circle r="2" stroke="#fe96c6" fill="#fe96c6" stroke-width="0" cx="136" cy="96" id="circle273"/><circle r="2" stroke="#fe96c6" fill="#fe96c6" stroke-width="0" cx="132" cy="100" id="circle274"/><circle r="2" stroke="#fe96c6" fill="#fe96c6" stroke-width="0" cx="140" cy="92" id="circle275"/><circle r="2" stroke="#fe96c6" fill="#fe96c6" stroke-width="0" cx="140" cy="100" id="circle276"/><circle r="2" stroke="#fe96c6" fill="#fe96c6" stroke-width="0" cx="136" cy="104" id="circle277"/><circle r="2" stroke="#fe96c6" fill="#fe96c6" stroke-width="0" cx="144" cy="96" id="circle278"/><circle r="2" stroke="#fe96c6" fill="#fe96c6" stroke-width="0" cx="144" cy="104" id="circle279"/><circle r="2" stroke="#fe96c6" fill="#fe96c6" stroke-width="0" cx="148" cy="92" id="circle280"/><circle r="2" stroke="#fe96c6" fill="#fe96c6" stroke-width="0" cx="152" cy="96" id="circle281"/><circle r="2" stroke="#fe96c6" fill="#fe96c6" stroke-width="0" cx="148" cy="100" id="circle282"/><circle r="2" stroke="#fe96c6" fill="#fe96c6" stroke-width="0" cx="156" cy="92" id="circle283"/><circle r="2" stroke="#fe96c6" fill="#fe96c6" stroke-width="0" cx="156" cy="92" id="circle284"/><circle r="2" stroke="#fe96c6" fill="#fe96c6" stroke-width="0" cx="156" cy="100" id="circle285"/><circle r="2" stroke="#fe96c6" fill="#fe96c6" stroke-width="0" cx="152" cy="104" id="circle286"/><circle r="2" stroke="#fe96c6" fill="#fe96c6" stroke-width="0" cx="160" cy="96" id="circle287"/><circle r="2" stroke="#fe96c6" fill="#fe96c6" stroke-width="0" cx="160" cy="104" id="circle288"/><circle r="2" stroke="#fe96c6" fill="#fe96c6" stroke-width="0" cx="164" cy="92" id="circle289"/><circle r="2" stroke="#fe96c6" fill="#fe96c6" stroke-width="0" cx="168" cy="96" id="circle290"/><circle r="2" stroke="#fe96c6" fill="#fe96c6" stroke-width="0" cx="164" cy="100" id="circle291"/><circle r="2" stroke="#fe96c6" fill="#fe96c6" stroke-width="0" cx="172" cy="92" id="circle292"/><circle r="2" stroke="#fe96c6" fill="#fe96c6" stroke-width="0" cx="172" cy="100" id="circle293"/><circle r="2" stroke="#fe96c6" fill="#fe96c6" stroke-width="0" cx="168" cy="104" id="circle294"/><circle r="2" stroke="#fe96c6" fill="#fe96c6" stroke-width="0" cx="176" cy="96" id="circle295"/><circle r="2" stroke="#fe96c6" fill="#fe96c6" stroke-width="0" cx="176" cy="104" id="circle296"/><circle r="2" stroke="#fe96c6" fill="#fe96c6" stroke-width="0" cx="180" cy="92" id="circle297"/><circle r="2" stroke="#fe96c6" fill="#fe96c6" stroke-width="0" cx="184" cy="96" id="circle298"/><circle r="2" stroke="#fe96c6" fill="#fe96c6" stroke-width="0" cx="180" cy="100" id="circle299"/><circle r="2" stroke="#fe96c6" fill="#fe96c6" stroke-width="0" cx="188" cy="92" id="circle300"/><circle r="2" stroke="#fe96c6" fill="#fe96c6" stroke-width="0" cx="188" cy="100" id="circle301"/><circle r="2" stroke="#fe96c6" fill="#fe96c6" stroke-width="0" cx="184" cy="104" id="circle302"/></g></svg>