<svg xmlns="http://www.w3.org/2000/svg" width="64" height="64"><path d="M6 1 58 1Q63 1 63 6L63 58Q63 63 58 63L6 63Q1 63 1 58L1 6Q1 1 6 1" opacity="1" fill-opacity="1" fill="#fea8d2" stroke="#ffdfee" stroke-width=".5"/><circle r="1" cx="4" cy="12" stroke="#fe96c6" fill="#fe96c6" stroke-width="0"/><circle r="1" cx="6" cy="10" stroke="#fe96c6" fill="#fe96c6" stroke-width="0"/><circle r="1" cx="6" cy="10" stroke="#fe96c6" fill="#fe96c6" stroke-width="0"/><circle r="1" cx="8" cy="12" stroke="#fe96c6" fill="#fe96c6" stroke-width="0"/><circle r="1" cx="10" cy="10" stroke="#fe96c6" fill="#fe96c6" stroke-width="0"/><circle r="1" cx="12" cy="12" stroke="#fe96c6" fill="#fe96c6" stroke-width="0"/><circle r="1" cx="14" cy="10" stroke="#fe96c6" fill="#fe96c6" stroke-width="0"/><circle r="1" cx="16" cy="12" stroke="#fe96c6" fill="#fe96c6" stroke-width="0"/><circle r="1" cx="20" cy="12" stroke="#fe96c6" fill="#fe96c6" stroke-width="0"/><circle r="1" cx="18" cy="10" stroke="#fe96c6" fill="#fe96c6" stroke-width="0"/><circle r="1" cx="22" cy="6" stroke="#fe96c6" fill="#fe96c6" stroke-width="0"/><circle r="1" cx="2" cy="58" stroke="#fe96c6" fill="#fe96c6" stroke-width="0"/><circle r="1" cx="6" cy="62" stroke="#fe96c6" fill="#fe96c6" stroke-width="0"/><circle r="1" cx="10" cy="62" stroke="#fe96c6" fill="#fe96c6" stroke-width="0"/><circle r="1" cx="14" cy="62" stroke="#fe96c6" fill="#fe96c6" stroke-width="0"/><circle r="1" cx="18" cy="62" stroke="#fe96c6" fill="#fe96c6" stroke-width="0"/><circle r="1" cx="22" cy="62" stroke="#fe96c6" fill="#fe96c6" stroke-width="0"/><circle r="1" cx="26" cy="62" stroke="#fe96c6" fill="#fe96c6" stroke-width="0"/><circle r="1" cx="30" cy="62" stroke="#fe96c6" fill="#fe96c6" stroke-width="0"/><circle r="1" cx="34" cy="62" stroke="#fe96c6" fill="#fe96c6" stroke-width="0"/><circle r="1" cx="38" cy="62" stroke="#fe96c6" fill="#fe96c6" stroke-width="0"/><circle r="1" cx="62" cy="58" stroke="#fe96c6" fill="#fe96c6" stroke-width="0"/><circle r="1" cx="42" cy="62" stroke="#fe96c6" fill="#fe96c6" stroke-width="0"/><circle r="1" cx="46" cy="62" stroke="#fe96c6" fill="#fe96c6" stroke-width="0"/><circle r="1" cx="50" cy="62" stroke="#fe96c6" fill="#fe96c6" stroke-width="0"/><circle r="1" cx="54" cy="62" stroke="#fe96c6" fill="#fe96c6" stroke-width="0"/><circle r="1" cx="58" cy="62" stroke="#fe96c6" fill="#fe96c6" stroke-width="0"/><circle r="1" cx="60" cy="60" stroke="#fe96c6" fill="#fe96c6" stroke-width="0"/><circle r="1" cx="60" cy="60" stroke="#fe96c6" fill="#fe96c6" stroke-width="0"/><circle r="1" cx="60" cy="56" stroke="#fe96c6" fill="#fe96c6" stroke-width="0"/><circle r="1" cx="58" cy="58" stroke="#fe96c6" fill="#fe96c6" stroke-width="0"/><circle r="1" cx="56" cy="60" stroke="#fe96c6" fill="#fe96c6" stroke-width="0"/><circle r="1" cx="56" cy="56" stroke="#fe96c6" fill="#fe96c6" stroke-width="0"/><circle r="1" cx="54" cy="58" stroke="#fe96c6" fill="#fe96c6" stroke-width="0"/><circle r="1" cx="52" cy="60" stroke="#fe96c6" fill="#fe96c6" stroke-width="0"/><circle r="1" cx="52" cy="56" stroke="#fe96c6" fill="#fe96c6" stroke-width="0"/><circle r="1" cx="50" cy="58" stroke="#fe96c6" fill="#fe96c6" stroke-width="0"/><circle r="1" cx="48" cy="60" stroke="#fe96c6" fill="#fe96c6" stroke-width="0"/><circle r="1" cx="48" cy="56" stroke="#fe96c6" fill="#fe96c6" stroke-width="0"/><circle r="1" cx="46" cy="58" stroke="#fe96c6" fill="#fe96c6" stroke-width="0"/><circle r="1" cx="44" cy="60" stroke="#fe96c6" fill="#fe96c6" stroke-width="0"/><circle r="1" cx="44" cy="56" stroke="#fe96c6" fill="#fe96c6" stroke-width="0"/><circle r="1" cx="42" cy="58" stroke="#fe96c6" fill="#fe96c6" stroke-width="0"/><circle r="1" cx="40" cy="60" stroke="#fe96c6" fill="#fe96c6" stroke-width="0"/><circle r="1" cx="40" cy="56" stroke="#fe96c6" fill="#fe96c6" stroke-width="0"/><circle r="1" cx="38" cy="58" stroke="#fe96c6" fill="#fe96c6" stroke-width="0"/><circle r="1" cx="36" cy="60" stroke="#fe96c6" fill="#fe96c6" stroke-width="0"/><circle r="1" cx="36" cy="56" stroke="#fe96c6" fill="#fe96c6" stroke-width="0"/><circle r="1" cx="34" cy="58" stroke="#fe96c6" fill="#fe96c6" stroke-width="0"/><circle r="1" cx="32" cy="60" stroke="#fe96c6" fill="#fe96c6" stroke-width="0"/><circle r="1" cx="32" cy="56" stroke="#fe96c6" fill="#fe96c6" stroke-width="0"/><circle r="1" cx="30" cy="58" stroke="#fe96c6" fill="#fe96c6" stroke-width="0"/><circle r="1" cx="28" cy="60" stroke="#fe96c6" fill="#fe96c6" stroke-width="0"/><circle r="1" cx="28" cy="56" stroke="#fe96c6" fill="#fe96c6" stroke-width="0"/><circle r="1" cx="26" cy="58" stroke="#fe96c6" fill="#fe96c6" stroke-width="0"/><circle r="1" cx="24" cy="60" stroke="#fe96c6" fill="#fe96c6" stroke-width="0"/><circle r="1" cx="24" cy="56" stroke="#fe96c6" fill="#fe96c6" stroke-width="0"/><circle r="1" cx="22" cy="58" stroke="#fe96c6" fill="#fe96c6" stroke-width="0"/><circle r="1" cx="20" cy="60" stroke="#fe96c6" fill="#fe96c6" stroke-width="0"/><circle r="1" cx="20" cy="60" stroke="#fe96c6" fill="#fe96c6" stroke-width="0"/><circle r="1" cx="20" cy="56" stroke="#fe96c6" fill="#fe96c6" stroke-width="0"/><circle r="1" cx="18" cy="58" stroke="#fe96c6" fill="#fe96c6" stroke-width="0"/><circle r="1" cx="16" cy="60" stroke="#fe96c6" fill="#fe96c6" stroke-width="0"/><circle r="1" cx="16" cy="56" stroke="#fe96c6" fill="#fe96c6" stroke-width="0"/><circle r="1" cx="14" cy="58" stroke="#fe96c6" fill="#fe96c6" stroke-width="0"/><circle r="1" cx="12" cy="60" stroke="#fe96c6" fill="#fe96c6" stroke-width="0"/><circle r="1" cx="12" cy="56" stroke="#fe96c6" fill="#fe96c6" stroke-width="0"/><circle r="1" cx="10" cy="58" stroke="#fe96c6" fill="#fe96c6" stroke-width="0"/><circle r="1" cx="8" cy="60" stroke="#fe96c6" fill="#fe96c6" stroke-width="0"/><circle r="1" cx="8" cy="56" stroke="#fe96c6" fill="#fe96c6" stroke-width="0"/><circle r="1" cx="6" cy="58" stroke="#fe96c6" fill="#fe96c6" stroke-width="0"/><circle r="1" cx="4" cy="56" stroke="#fe96c6" fill="#fe96c6" stroke-width="0"/><circle r="1" cx="4" cy="60" stroke="#fe96c6" fill="#fe96c6" stroke-width="0"/><circle r="1" cx="58" cy="12" stroke="#fe96c6" fill="#fe96c6" stroke-width="0"/><circle r="1" cx="58" cy="8" stroke="#fe96c6" fill="#fe96c6" stroke-width="0"/><circle r="1" cx="58" cy="4" stroke="#fe96c6" fill="#fe96c6" stroke-width="0"/><circle r="1" cx="56" cy="6" stroke="#fe96c6" fill="#fe96c6" stroke-width="0"/><circle r="1" cx="56" cy="10" stroke="#fe96c6" fill="#fe96c6" stroke-width="0"/><circle r="1" cx="54" cy="12" stroke="#fe96c6" fill="#fe96c6" stroke-width="0"/><circle r="1" cx="54" cy="8" stroke="#fe96c6" fill="#fe96c6" stroke-width="0"/><circle r="1" cx="54" cy="4" stroke="#fe96c6" fill="#fe96c6" stroke-width="0"/><circle r="1" cx="52" cy="6" stroke="#fe96c6" fill="#fe96c6" stroke-width="0"/><circle r="1" cx="52" cy="10" stroke="#fe96c6" fill="#fe96c6" stroke-width="0"/><circle r="1" cx="50" cy="12" stroke="#fe96c6" fill="#fe96c6" stroke-width="0"/><circle r="1" cx="50" cy="8" stroke="#fe96c6" fill="#fe96c6" stroke-width="0"/><circle r="1" cx="50" cy="4" stroke="#fe96c6" fill="#fe96c6" stroke-width="0"/><circle r="1" cx="48" cy="6" stroke="#fe96c6" fill="#fe96c6" stroke-width="0"/><circle r="1" cx="48" cy="10" stroke="#fe96c6" fill="#fe96c6" stroke-width="0"/><circle r="1" cx="46" cy="12" stroke="#fe96c6" fill="#fe96c6" stroke-width="0"/><circle r="1" cx="46" cy="8" stroke="#fe96c6" fill="#fe96c6" stroke-width="0"/><circle r="1" cx="46" cy="4" stroke="#fe96c6" fill="#fe96c6" stroke-width="0"/><circle r="1" cx="44" cy="6" stroke="#fe96c6" fill="#fe96c6" stroke-width="0"/><circle r="1" cx="44" cy="10" stroke="#fe96c6" fill="#fe96c6" stroke-width="0"/><circle r="1" cx="44" cy="12" stroke="#fe96c6" fill="#fe96c6" stroke-width="0"/><circle r="1" cx="44" cy="12" stroke="#fe96c6" fill="#fe96c6" stroke-width="0"/><circle r="1" cx="44" cy="8" stroke="#fe96c6" fill="#fe96c6" stroke-width="0"/><circle r="1" cx="44" cy="4" stroke="#fe96c6" fill="#fe96c6" stroke-width="0"/><circle r="1" cx="42" cy="6" stroke="#fe96c6" fill="#fe96c6" stroke-width="0"/><circle r="1" cx="42" cy="10" stroke="#fe96c6" fill="#fe96c6" stroke-width="0"/><circle r="1" cx="40" cy="12" stroke="#fe96c6" fill="#fe96c6" stroke-width="0"/><circle r="1" cx="40" cy="8" stroke="#fe96c6" fill="#fe96c6" stroke-width="0"/><circle r="1" cx="40" cy="4" stroke="#fe96c6" fill="#fe96c6" stroke-width="0"/><circle r="1" cx="38" cy="6" stroke="#fe96c6" fill="#fe96c6" stroke-width="0"/><circle r="1" cx="38" cy="10" stroke="#fe96c6" fill="#fe96c6" stroke-width="0"/><circle r="1" cx="36" cy="12" stroke="#fe96c6" fill="#fe96c6" stroke-width="0"/><circle r="1" cx="36" cy="8" stroke="#fe96c6" fill="#fe96c6" stroke-width="0"/><circle r="1" cx="36" cy="4" stroke="#fe96c6" fill="#fe96c6" stroke-width="0"/><circle r="1" cx="34" cy="6" stroke="#fe96c6" fill="#fe96c6" stroke-width="0"/><circle r="1" cx="34" cy="10" stroke="#fe96c6" fill="#fe96c6" stroke-width="0"/><circle r="1" cx="32" cy="12" stroke="#fe96c6" fill="#fe96c6" stroke-width="0"/><circle r="1" cx="32" cy="12" stroke="#fe96c6" fill="#fe96c6" stroke-width="0"/><circle r="1" cx="32" cy="8" stroke="#fe96c6" fill="#fe96c6" stroke-width="0"/><circle r="1" cx="32" cy="4" stroke="#fe96c6" fill="#fe96c6" stroke-width="0"/><circle r="1" cx="30" cy="6" stroke="#fe96c6" fill="#fe96c6" stroke-width="0"/><circle r="1" cx="30" cy="10" stroke="#fe96c6" fill="#fe96c6" stroke-width="0"/><circle r="1" cx="28" cy="12" stroke="#fe96c6" fill="#fe96c6" stroke-width="0"/><circle r="1" cx="28" cy="8" stroke="#fe96c6" fill="#fe96c6" stroke-width="0"/><circle r="1" cx="28" cy="4" stroke="#fe96c6" fill="#fe96c6" stroke-width="0"/><circle r="1" cx="26" cy="6" stroke="#fe96c6" fill="#fe96c6" stroke-width="0"/><circle r="1" cx="26" cy="10" stroke="#fe96c6" fill="#fe96c6" stroke-width="0"/><circle r="1" cx="24" cy="12" stroke="#fe96c6" fill="#fe96c6" stroke-width="0"/><circle r="1" cx="22" cy="10" stroke="#fe96c6" fill="#fe96c6" stroke-width="0"/><circle r="1" cx="24" cy="8" stroke="#fe96c6" fill="#fe96c6" stroke-width="0"/><circle r="1" cx="24" cy="4" stroke="#fe96c6" fill="#fe96c6" stroke-width="0"/><circle r="1" cx="20" cy="8" stroke="#fe96c6" fill="#fe96c6" stroke-width="0"/><circle r="1" cx="20" cy="4" stroke="#fe96c6" fill="#fe96c6" stroke-width="0"/><circle r="1" cx="18" cy="6" stroke="#fe96c6" fill="#fe96c6" stroke-width="0"/><circle r="1" cx="16" cy="8" stroke="#fe96c6" fill="#fe96c6" stroke-width="0"/><circle r="1" cx="16" cy="4" stroke="#fe96c6" fill="#fe96c6" stroke-width="0"/><circle r="1" cx="14" cy="6" stroke="#fe96c6" fill="#fe96c6" stroke-width="0"/><circle r="1" cx="12" cy="8" stroke="#fe96c6" fill="#fe96c6" stroke-width="0"/><circle r="1" cx="12" cy="4" stroke="#fe96c6" fill="#fe96c6" stroke-width="0"/><circle r="1" cx="10" cy="6" stroke="#fe96c6" fill="#fe96c6" stroke-width="0"/><circle r="1" cx="8" cy="8" stroke="#fe96c6" fill="#fe96c6" stroke-width="0"/><circle r="1" cx="4" cy="8" stroke="#fe96c6" fill="#fe96c6" stroke-width="0"/><circle r="1" cx="6" cy="6" stroke="#fe96c6" fill="#fe96c6" stroke-width="0"/><circle r="1" cx="8" cy="4" stroke="#fe96c6" fill="#fe96c6" stroke-width="0"/><circle r="1" cx="22" cy="2" stroke="#fe96c6" fill="#fe96c6" stroke-width="0"/><circle r="1" cx="60" cy="10" stroke="#fe96c6" fill="#fe96c6" stroke-width="0"/><circle r="1" cx="60" cy="6" stroke="#fe96c6" fill="#fe96c6" stroke-width="0"/><circle r="1" cx="56" cy="2" stroke="#fe96c6" fill="#fe96c6" stroke-width="0"/><circle r="1" cx="52" cy="2" stroke="#fe96c6" fill="#fe96c6" stroke-width="0"/><circle r="1" cx="48" cy="2" stroke="#fe96c6" fill="#fe96c6" stroke-width="0"/><circle r="1" cx="46" cy="2" stroke="#fe96c6" fill="#fe96c6" stroke-width="0"/><circle r="1" cx="46" cy="2" stroke="#fe96c6" fill="#fe96c6" stroke-width="0"/><circle r="1" cx="42" cy="2" stroke="#fe96c6" fill="#fe96c6" stroke-width="0"/><circle r="1" cx="38" cy="2" stroke="#fe96c6" fill="#fe96c6" stroke-width="0"/><circle r="1" cx="34" cy="2" stroke="#fe96c6" fill="#fe96c6" stroke-width="0"/><circle r="1" cx="30" cy="2" stroke="#fe96c6" fill="#fe96c6" stroke-width="0"/><circle r="1" cx="26" cy="2" stroke="#fe96c6" fill="#fe96c6" stroke-width="0"/><circle r="1" cx="18" cy="2" stroke="#fe96c6" fill="#fe96c6" stroke-width="0"/><circle r="1" cx="14" cy="2" stroke="#fe96c6" fill="#fe96c6" stroke-width="0"/><circle r="1" cx="10" cy="2" stroke="#fe96c6" fill="#fe96c6" stroke-width="0"/><circle r="1" cx="6" cy="2" stroke="#fe96c6" fill="#fe96c6" stroke-width="0"/><circle r="1" cx="2" cy="10" stroke="#fe96c6" fill="#fe96c6" stroke-width="0"/><circle r="1" cx="2" cy="6" stroke="#fe96c6" fill="#fe96c6" stroke-width="0"/><circle r="1" cx="4" cy="4" stroke="#fe96c6" fill="#fe96c6" stroke-width="0"/><path d="M6 1 58 1Q63 1 63 6L63 58Q63 63 58 63L6 63Q1 63 1 58L1 6Q1 1 6 1" opacity="1" fill-opacity="0" fill="#fea8d2" stroke="#ffdfee" stroke-width=".5"/></svg>